<svg width="25" height="25" viewBox="0 0 50 50" fill="none" xmlns="http://www.w3.org/2000/svg">
<path d="M22.9167 25.0002C20.625 25.0002 18.6632 24.1842 17.0312 22.5522C15.3993 20.9203 14.5833 18.9585 14.5833 16.6668C14.5833 14.3752 15.3993 12.4134 17.0312 10.7814C18.6632 9.14947 20.625 8.3335 22.9167 8.3335C25.2083 8.3335 27.1701 9.14947 28.8021 10.7814C30.434 12.4134 31.25 14.3752 31.25 16.6668C31.25 18.9585 30.434 20.9203 28.8021 22.5522C27.1701 24.1842 25.2083 25.0002 22.9167 25.0002ZM22.9167 20.8335C24.0625 20.8335 25.0438 20.4252 25.8604 19.6085C26.6757 18.7932 27.0833 17.8127 27.0833 16.6668C27.0833 15.521 26.6757 14.5404 25.8604 13.7252C25.0438 12.9085 24.0625 12.5002 22.9167 12.5002C21.7708 12.5002 20.7903 12.9085 19.975 13.7252C19.1583 14.5404 18.75 15.521 18.75 16.6668C18.75 17.8127 19.1583 18.7932 19.975 19.6085C20.7903 20.4252 21.7708 20.8335 22.9167 20.8335ZM46.0417 48.9585L39.375 42.2918C38.6458 42.7085 37.8646 43.0557 37.0313 43.3335C36.1979 43.6113 35.3125 43.7502 34.375 43.7502C31.7708 43.7502 29.5569 42.8391 27.7333 41.0168C25.9111 39.1932 25 36.9793 25 34.3752C25 31.771 25.9111 29.5571 27.7333 27.7335C29.5569 25.9113 31.7708 25.0002 34.375 25.0002C36.9792 25.0002 39.1931 25.9113 41.0167 27.7335C42.8389 29.5571 43.75 31.771 43.75 34.3752C43.75 35.3127 43.6111 36.1981 43.3333 37.0314C43.0556 37.8647 42.7083 38.646 42.2917 39.3752L48.9583 46.0418L46.0417 48.9585ZM34.375 39.5835C35.8333 39.5835 37.066 39.08 38.0729 38.0731C39.0799 37.0661 39.5833 35.8335 39.5833 34.3752C39.5833 32.9168 39.0799 31.6842 38.0729 30.6772C37.066 29.6703 35.8333 29.1668 34.375 29.1668C32.9167 29.1668 31.684 29.6703 30.6771 30.6772C29.6701 31.6842 29.1667 32.9168 29.1667 34.3752C29.1667 35.8335 29.6701 37.0661 30.6771 38.0731C31.684 39.08 32.9167 39.5835 34.375 39.5835ZM6.25 41.6668V35.8856C6.25 34.705 6.54514 33.6113 7.13542 32.6043C7.72569 31.5974 8.54167 30.8335 9.58333 30.3127C11.3542 29.4099 13.3507 28.646 15.5729 28.021C17.7951 27.396 20.2604 27.0835 22.9688 27.0835C22.5521 27.7085 22.1965 28.3766 21.9021 29.0877C21.6062 29.8002 21.3715 30.5384 21.1979 31.3022C19.1146 31.4759 17.2569 31.8314 15.625 32.3689C13.9931 32.9078 12.6215 33.4724 11.5104 34.0627C11.1632 34.2363 10.8944 34.4877 10.7042 34.8168C10.5125 35.1474 10.4167 35.5036 10.4167 35.8856V37.5002H21.1979C21.3715 38.2641 21.6062 38.9932 21.9021 39.6877C22.1965 40.3821 22.5521 41.0418 22.9688 41.6668H6.25Z" fill="#403832"/>
</svg>
