<svg xmlns="http://www.w3.org/2000/svg" width="25" height="25" viewBox="0 0 32 32"><title>material symbols person search outline</title><g fill="#403832" class="nc-icon-wrapper"><g fill="#403832"><path transform="scale(1,-1) translate(0,-32)" d="M 14.666666666666666 16 Q 12.466666666666667 16 10.9 17.566666666666663 Q 9.333333333333334 19.133333333333333 9.333333333333334 21.333333333333336 Q 9.333333333333334 23.533333333333335 10.9 25.1 Q 12.466666666666667 26.666666666666668 14.666666666666666 26.666666666666668 Q 16.866666666666667 26.666666666666668 18.433333333333334 25.1 Q 20 23.533333333333335 20 21.333333333333336 Q 20 19.133333333333336 18.433333333333334 17.566666666666663 Q 16.866666666666667 16 14.666666666666666 16 z M 14.666666666666666 18.666666666666664 Q 15.766666666666666 18.666666666666664 16.550666666666665 19.450666666666663 Q 17.333333333333332 20.233333333333338 17.333333333333332 21.333333333333336 T 16.550666666666665 23.216 Q 15.766666666666666 24 14.666666666666666 24 Q 13.566666666666666 24 12.784 23.216 Q 12 22.433333333333337 12 21.333333333333336 T 12.784 19.450666666666663 Q 13.566666666666666 18.666666666666668 14.666666666666666 18.666666666666668 z M 29.46666666666666 0.6666666666666656 L 25.2 4.933333333333327 Q 24.5 4.533333333333331 23.7 4.266666666666662 T 22 4 Q 19.5 4 17.749333333333333 5.749333333333332 Q 16 7.5 16 10 Q 16 12.5 17.749333333333333 14.25066666666667 Q 19.5 16 22 16 Q 24.5 16 26.250666666666667 14.25066666666667 Q 28 12.5 28 10 Q 28 9.1 27.733333333333338 8.3 Q 27.46666666666667 7.5 27.06666666666667 6.8 L 31.333333333333332 2.5333333333333345 z M 22 6.666666666666669 Q 23.400000000000002 6.666666666666669 24.366666666666667 7.633333333333335 Q 25.333333333333332 8.6 25.333333333333332 10 Q 25.333333333333332 11.4 24.366666666666667 12.36666666666667 Q 23.400000000000002 13.333333333333337 22 13.333333333333337 Q 20.6 13.333333333333337 19.633333333333333 12.366666666666672 Q 18.666666666666664 11.400000000000004 18.666666666666664 10 Q 18.666666666666664 8.6 19.63333333333333 7.633333333333335 Q 20.599999999999998 6.666666666666669 22 6.666666666666669 z M 4 5.3333333333333375 V 9.033333333333339 Q 4 10.16666666666667 4.5666666666666655 11.133333333333335 T 6.133333333333335 12.6 Q 7.833333333333335 13.46666666666667 9.966666666666667 14.066666666666672 Q 12.1 14.666666666666671 14.699999999999998 14.666666666666671 Q 14.299999999999997 14.066666666666672 14.017333333333335 13.384000000000004 Q 13.73333333333333 12.700000000000005 13.566666666666666 11.966666666666672 Q 11.566666666666666 11.800000000000004 10 11.28400000000001 Q 8.433333333333334 10.766666666666671 7.366666666666665 10.20000000000001 Q 7.033333333333331 10.033333333333342 6.850666666666665 9.717333333333341 Q 6.666666666666665 9.400000000000004 6.666666666666665 9.033333333333335 V 8 H 13.566666666666666 Q 13.733333333333334 7.266666666666666 14.017333333333335 6.6000000000000005 Q 14.3 5.933333333333331 14.700000000000001 5.3333333333333375 z M 14.666666666666666 21.333333333333336 z M 13.566666666666666 8.000000000000004 z"></path></g></g></svg>