<svg width="70" height="70" viewBox="0 0 70 70" fill="none" xmlns="http://www.w3.org/2000/svg">
<path d="M35.1048 68.2096C53.388 68.2096 68.2096 53.388 68.2096 35.1048C68.2096 16.8215 53.388 2 35.1048 2C16.8215 2 2 16.8215 2 35.1048C2 53.388 16.8215 68.2096 35.1048 68.2096Z" stroke="#403832" stroke-width="2.2199" stroke-miterlimit="10"/>
<path d="M35.1053 68.2096C45.5457 68.2096 54.0093 53.388 54.0093 35.1048C54.0093 16.8215 45.5457 2 35.1053 2C24.6648 2 16.2012 16.8215 16.2012 35.1048C16.2012 53.388 24.6648 68.2096 35.1053 68.2096Z" stroke="#403832" stroke-width="2.2199" stroke-miterlimit="10"/>
<path d="M35.1048 54.0089C53.388 54.0089 68.2096 45.5452 68.2096 35.1048C68.2096 24.6643 53.388 16.2007 35.1048 16.2007C16.8215 16.2007 2 24.6643 2 35.1048C2 45.5452 16.8215 54.0089 35.1048 54.0089Z" stroke="#403832" stroke-width="2.2199" stroke-miterlimit="10"/>
<path d="M2 35.105H68.2096" stroke="#403832" stroke-width="2.2199" stroke-miterlimit="10"/>
<path d="M35.1045 2V68.3" stroke="#403832" stroke-width="2.2199" stroke-miterlimit="10"/>
</svg>
