<svg width="521" height="565" viewBox="0 0 521 565" fill="none" xmlns="http://www.w3.org/2000/svg">
<g clip-path="url(#clip0_812_3261)">
<path d="M173 80C173 35.8172 137.183 0 93 0H88C45.4741 0 11 34.4741 11 77V160H173V80Z" fill="#FF9776"/>
<path d="M335 77C335 32.8172 299.183 -3 255 -3H250C207.474 -3 173 31.4741 173 74V157H335V77Z" fill="#FF9776"/>
<path d="M330.5 50.6722L11 159.5L11.0002 168.672L91.5003 293L391.001 149.672L330.5 50.6722Z" fill="#FF9776"/>
<path d="M175.5 531.5L494 423L494 411L414 284L108 422.5L175.5 531.5Z" fill="#D9CFC0"/>
<path d="M414 205C414 160.817 378.183 125 334 125H329C286.474 125 252 159.474 252 202V285H414V205Z" fill="#D9CFC0"/>
<path d="M252 205C252 160.817 216.183 125 172 125H167C124.474 125 90 159.474 90 202V285H252V205Z" fill="#D9CFC0"/>
<path d="M332 503C332 547.183 367.817 583 412 583L417 583C459.526 583 494 548.526 494 506L494 423L332 423L332 503Z" fill="#D9CFC0"/>
<path d="M170 503C170 547.183 205.817 583 250 583L255 583C297.526 583 332 548.526 332 506L332 423L170 423L170 503Z" fill="#D9CFC0"/>
<path d="M252 371C252 415.183 287.817 451 332 451L337 451C379.526 451 414 416.526 414 374L414 291L252 291L252 371Z" fill="#FF9776"/>
<path d="M90 371C90 415.183 125.817 451 170 451L175 451C217.526 451 252 416.526 252 374L252 291L90 291L90 371Z" fill="#FF9776"/>
<rect width="324" height="7" transform="matrix(-1 0 0 1 414 284)" fill="#403832"/>
</g>
<defs>
<clipPath id="clip0_812_3261">
<rect width="521" height="565" fill="white" transform="matrix(-1 0 0 1 521 0)"/>
</clipPath>
</defs>
</svg>
