<svg width="25" height="25" xmlns="http://www.w3.org/2000/svg" viewBox="0 0 49 43"><title>Music search icon</title><g fill="none" class="nc-icon-wrapper"><path d="M47.474 39.409l-5.08-5.268a10.71 10.71 0 0 0 1.553-7.3c-.373-2.549-1.646-4.864-3.571-6.495a9.799 9.799 0 0 0-6.85-2.333c-2.482.13-4.83 1.21-6.588 3.033s-2.8 4.258-2.925 6.833a10.654 10.654 0 0 0 2.25 7.102c1.573 1.996 3.805 3.316 6.263 3.703a9.746 9.746 0 0 0 7.04-1.61l5.08 5.267c.377.378.882.587 1.407.582a1.965 1.965 0 0 0 1.397-.607c.37-.385.58-.905.585-1.449a2.116 2.116 0 0 0-.561-1.458zM28.06 28.432c0-1.231.352-2.434 1.011-3.457a6.052 6.052 0 0 1 2.693-2.292 5.802 5.802 0 0 1 3.466-.354 5.937 5.937 0 0 1 3.073 1.703c.839.87 1.41 1.979 1.642 3.186a6.436 6.436 0 0 1-.342 3.595 6.179 6.179 0 0 1-2.21 2.792 5.85 5.85 0 0 1-3.333 1.048 5.893 5.893 0 0 1-4.243-1.822 6.34 6.34 0 0 1-1.757-4.4z" fill="#403832"></path><g clip-path="url(#1681964559399-3273031_clip0_15_1856)"><path d="M33 18.5c0 2.589 4.607-4.413 1.5-4.413s4 7.589 4 5c0-2.589-9.607-4.587-6.5-4.587-.875 0-6.84 3.413-6.25 3.587v-9.27l-15 4.395V25.4c0 2.588-2.518 4.687-5.625 4.687S-.5 27.988-.5 25.399c0-2.588 2.518-4.687 5.625-4.687.661 0 1.286.113 1.875.287v-13.5c0-.76.59-1.56 1.313-1.789L27.06.174c.152-.049.405-.087.564-.087 1.035 0 1.873.84 1.875 1.873L33 18.5z" fill="#403832"></path></g><defs><clipPath id="1681964559399-3273031_clip0_15_1856"><path fill="#fff" d="M0 0h30v30H0z"></path></clipPath></defs></g></svg>