<svg width="116" height="116" viewBox="0 0 116 116" fill="none" xmlns="http://www.w3.org/2000/svg">
<path d="M110.18 61.4512L110.224 61.4476L110.268 61.4413C111.584 61.2532 112.439 60.2096 112.439 59.0309C112.439 57.8522 111.584 56.8086 110.268 56.6206L110.224 56.6143L110.18 56.6106C99.5475 55.7281 91.2978 54.6947 84.8229 53C78.366 51.31 73.7833 48.9893 70.3972 45.6032C67.0111 42.217 64.6904 37.6343 63.0004 31.1774C61.3057 24.7025 60.2722 16.4529 59.3897 5.82081L59.386 5.77664L59.3798 5.73276C59.1917 4.41637 58.1481 3.56152 56.9694 3.56152C55.7907 3.56152 54.7471 4.41637 54.559 5.73276L54.5528 5.77664L54.5491 5.82081C53.6666 16.4529 52.6332 24.7025 50.9385 31.1774C49.2485 37.6343 46.9277 42.217 43.5416 45.6032C40.1555 48.9893 35.5728 51.31 29.1159 53C22.641 54.6947 14.3914 55.7281 3.75929 56.6106L3.71511 56.6143L3.67123 56.6206C2.35485 56.8086 1.5 57.8522 1.5 59.0309C1.5 60.2096 2.35485 61.2532 3.67123 61.4413L3.71511 61.4476L3.75929 61.4512C14.3914 62.3337 22.641 63.3672 29.1159 65.0619C35.5728 66.7519 40.1555 69.0726 43.5416 72.4587C46.9277 75.8448 49.2485 80.4276 50.9385 86.8845C52.6332 93.3593 53.6666 101.609 54.5491 112.241L54.5528 112.285L54.559 112.329C54.7471 113.645 55.7907 114.5 56.9694 114.5C58.1481 114.5 59.1917 113.645 59.3798 112.329L59.386 112.285L59.3897 112.241C60.2722 101.609 61.3057 93.3593 63.0004 86.8845C64.6904 80.4276 67.0111 75.8448 70.3972 72.4587C73.7833 69.0726 78.366 66.7519 84.8229 65.0619C91.2978 63.3672 99.5475 62.3337 110.18 61.4512Z" fill="#FF9776" stroke="#FF9776" stroke-width="3"/>
<path d="M99.5886 34.1223L99.5924 34.0998L99.5955 34.0773C100.263 29.1528 101.229 26.3958 102.961 24.6462C104.681 22.9091 107.416 21.9052 112.366 21.2388C112.98 21.208 113.547 20.9459 113.95 20.4762C114.352 20.0067 114.5 19.4385 114.5 18.9426C114.5 17.9686 113.918 16.8682 112.717 16.468L112.584 16.4235L112.444 16.4046C107.52 15.7369 104.763 14.7716 103.013 13.0392C101.268 11.3107 100.262 8.55672 99.5959 3.55892L99.5927 3.53469L99.5886 3.51057C99.3593 2.1346 98.1767 1.5 97.1836 1.5C96.1906 1.5 95.008 2.1346 94.7786 3.51057L94.7749 3.53305L94.7718 3.55562C94.1041 8.48005 93.1388 11.237 91.4064 12.9867C89.6779 14.7325 86.9239 15.7378 81.9261 16.4042L81.9019 16.4074L81.8778 16.4114C80.5018 16.6407 79.8672 17.8234 79.8672 18.8164C79.8672 19.8095 80.5018 20.9921 81.8778 21.2215L81.9002 21.2252L81.9228 21.2283C86.8472 21.896 89.6042 22.8613 91.3539 24.5936C93.0997 26.3222 94.105 29.0762 94.7714 34.074L94.7746 34.0982L94.7786 34.1223C95.008 35.4983 96.1906 36.1329 97.1836 36.1329C98.1767 36.1329 99.3593 35.4983 99.5886 34.1223Z" fill="#FF9776" stroke="#FF9776" stroke-width="3"/>
</svg>
