<svg width="102" height="50" viewBox="0 0 102 50" fill="none" xmlns="http://www.w3.org/2000/svg">
<path d="M2.36 45.864H8.12L17.592 7.72H8.376L6.392 15.592H0.888L3.704 4.328H40.504L37.688 15.592H32.184L34.168 7.72H24.888L15.416 45.864H21.176L20.472 49H1.592L2.36 45.864ZM60.1935 49.768C58.4868 49.768 57.2708 49.32 56.5455 48.424C55.8202 47.528 55.4575 46.5253 55.4575 45.416C55.4575 44.9467 55.5002 44.4347 55.5855 43.88C55.7135 43.2827 55.8415 42.7493 55.9695 42.28L61.2815 22.952C61.4095 22.44 61.4735 21.9707 61.4735 21.544C61.4735 20.3493 60.9188 19.752 59.8095 19.752C58.7855 19.752 57.6122 20.2853 56.2895 21.352C55.0095 22.4187 53.7295 23.8907 52.4495 25.768C51.1695 27.6027 49.9535 29.7573 48.8015 32.232C47.6922 34.664 46.7962 37.2453 46.1135 39.976L43.8735 49H36.9615L47.7775 5.864H42.2735L42.9775 2.984L56.0335 0.359997L48.8015 26.92L49.4415 27.112C50.2948 25.5333 51.1695 24.0187 52.0655 22.568C52.9615 21.1173 53.9215 19.8373 54.9455 18.728C56.0122 17.576 57.1642 16.6587 58.4015 15.976C59.6388 15.2933 61.0255 14.952 62.5615 14.952C64.6095 14.952 66.0815 15.5067 66.9775 16.616C67.8735 17.6827 68.3215 19.0907 68.3215 20.84C68.3215 21.4373 68.2575 22.0773 68.1295 22.76C68.0442 23.4427 67.8948 24.1467 67.6815 24.872L62.1775 44.968L63.3295 45.48L69.9855 38.184L71.9055 39.464L67.7455 44.776C66.2948 46.696 64.9722 48.0187 63.7775 48.744C62.6255 49.4267 61.4308 49.768 60.1935 49.768ZM83.8265 49.768C80.7118 49.768 78.4292 48.872 76.9785 47.08C75.5705 45.288 74.8665 42.664 74.8665 39.208C74.8665 37.5867 75.0158 35.8587 75.3145 34.024C75.6132 32.1893 76.0612 30.376 76.6585 28.584C77.2985 26.792 78.1092 25.0853 79.0905 23.464C80.0718 21.8 81.2238 20.3493 82.5465 19.112C83.8692 17.832 85.3625 16.8293 87.0265 16.104C88.7332 15.336 90.6318 14.952 92.7225 14.952C93.8318 14.952 94.8985 15.08 95.9225 15.336C96.9892 15.5493 97.9278 15.912 98.7385 16.424C99.5918 16.936 100.253 17.6187 100.723 18.472C101.235 19.3253 101.491 20.3707 101.491 21.608C101.491 22.7173 101.213 23.8693 100.659 25.064C100.104 26.216 99.1225 27.304 97.7145 28.328C96.3492 29.352 94.4718 30.2267 92.0825 30.952C89.6932 31.6773 86.6852 32.168 83.0585 32.424C82.7172 33.7893 82.4398 35.1547 82.2265 36.52C82.0558 37.8427 81.9705 39.0373 81.9705 40.104C81.9705 43.7307 83.3785 45.544 86.1945 45.544C88.1145 45.544 89.9278 44.7333 91.6345 43.112C93.3838 41.4907 95.0265 39.2293 96.5625 36.328L98.7385 37.352C97.7145 39.4 96.6905 41.2133 95.6665 42.792C94.6425 44.328 93.5332 45.6293 92.3385 46.696C91.1865 47.72 89.9065 48.488 88.4985 49C87.0905 49.512 85.5332 49.768 83.8265 49.768ZM83.5705 30.184C87.8372 29.6293 90.8665 28.6267 92.6585 27.176C94.4505 25.6827 95.3465 23.8053 95.3465 21.544C95.3465 20.4773 95.0905 19.6027 94.5785 18.92C94.1092 18.2373 93.2772 17.896 92.0825 17.896C91.1438 17.896 90.2905 18.1093 89.5225 18.536C88.7545 18.92 88.0292 19.6027 87.3465 20.584C86.6638 21.5227 86.0025 22.7813 85.3625 24.36C84.7652 25.9387 84.1678 27.88 83.5705 30.184Z" fill="#FF9776"/>
</svg>
