<svg xmlns="http://www.w3.org/2000/svg" width="512" height="512" viewBox="0 0 512 512"><g class="nc-icon-wrapper" fill="#403832"><path d="M380.381 123.738c-12.624-12.625-31.373-14.5-46.372-6.75-23.623-13.25-50.122-21.001-77.87-21.001-73.37 0-137.366 50.001-155.115 121.128-17.874 71.251 14.999 145.377 79.745 180.003 64.746 34.501 144.616 20.625 193.863-33.751 49.372-54.376 55.246-135.252 14.499-196.253 6.124-15.001 2.625-32.001-8.75-43.376zm-33.748 222.754c-48.372 48.376-132.741 48.376-181.113 0-36.623-36.626-47.497-91.627-27.749-139.502 19.874-47.876 66.496-79.002 118.368-79.002 20.499 0 39.998 5.375 57.871 14.375-3.374 13.251-.5 27.626 9.75 37.876 10.874 10.75 26.873 14.375 41.247 9.25 31.248 50.251 23.499 115.377-18.374 157.003zm90.62-271.505C365.949 3.561 259.996-18.721 166.801 16.28c-9.218 3.462-12.845 14.717-7.467 22.965 7.218 11.071 18.291 6.88 18.786 6.695 86.771-32.49 185.334-8.21 247.008 62.298 64.496 73.876 73.246 181.253 21.749 264.63-25.498-11.501-55.621-2.5-70.745 21.125-15 23.625-10.5 54.751 10.749 73.001 21.123 18.376 52.497 18.376 73.745 0 21.124-18.25 25.749-49.376 10.624-73.001 63.872-99.002 52.747-232.254-33.997-319.006zm-13.125 373.007c-13.249 0-23.998-10.75-23.998-24s10.749-24.001 23.998-24.001c13.25 0 23.999 10.75 23.999 24.001s-10.749 24-23.999 24zm-72.94 24.951c-3.99-6.167-11.608-8.988-18.51-6.477-66.263 24.108-140.331 15.741-199.656-23.224C69.901 401.743 32.028 331.367 31.903 255.99c0-42 12.249-81.876 33.748-116.752 25.623 11.375 55.746 2.25 70.746-21.375 14.999-23.626 10.499-54.751-10.75-73.126-21.123-18.376-52.622-18.376-73.87-.126-21.249 18.251-25.999 49.376-11.125 73.002-63.87 99.127-52.496 232.629 34.248 319.381 70.787 70.909 175.951 93.447 268.824 59.431 6.722-2.462 14.533-12.553 7.464-23.48zM88.025 63.987c13.249 0 23.998 10.75 23.998 24s-10.749 24.001-23.998 24.001c-13.25 0-23.999-10.75-23.999-24.001s10.749-24 23.999-24zm168.114 112.002c-44.247 0-79.995 35.876-79.995 80.001 0 44.251 35.748 80.002 79.995 80.002 44.122 0 79.995-35.876 79.995-80.002-.125-44.125-35.873-80.001-79.995-80.001zm0 128.002c-26.623 0-47.997-21.5-47.997-48.001s21.499-48 47.997-48 47.997 21.5 47.997 48-21.499 48.001-47.997 48.001z"></path></g></svg>